<svg id="Capa_1" data-name="Capa 1" xmlns="http://www.w3.org/2000/svg" xmlns:xlink="http://www.w3.org/1999/xlink" viewBox="0 0 337.39 400"><defs><style>.cls-1{fill:url(#Безымянный_градиент);}.cls-2{fill:url(#Безымянный_градиент_2);}.cls-3{fill:url(#Безымянный_градиент_3);}.cls-10,.cls-4,.cls-5,.cls-6,.cls-7,.cls-8,.cls-9{fill:none;stroke-miterlimit:10;}.cls-4{stroke:url(#Безымянный_градиент_5);}.cls-5{stroke:url(#Безымянный_градиент_5-2);}.cls-6{stroke:url(#Безымянный_градиент_5-3);}.cls-7{stroke:url(#Безымянный_градиент_21);}.cls-8{stroke:url(#Безымянный_градиент_21-2);}.cls-9{stroke:url(#Безымянный_градиент_10);}.cls-10{stroke:url(#Безымянный_градиент_10-2);}</style><linearGradient id="Безымянный_градиент" x1="69.01" y1="-313.33" x2="80.83" y2="-313.33" gradientTransform="translate(0 326)" gradientUnits="userSpaceOnUse"><stop offset="0" stop-color="#005380"/><stop offset="0.62" stop-color="#01678e"/><stop offset="1" stop-color="#017496"/></linearGradient><linearGradient id="Безымянный_градиент_2" x1="84.63" y1="-313.33" x2="96.45" y2="-313.33" xlink:href="#Безымянный_градиент"/><linearGradient id="Безымянный_градиент_3" x1="99.83" y1="-313.33" x2="111.65" y2="-313.33" xlink:href="#Безымянный_градиент"/><linearGradient id="Безымянный_градиент_5" x1="145.26" y1="178.23" x2="245.08" y2="178.23" gradientTransform="matrix(1, 0, 0, -1, 0, 400)" gradientUnits="userSpaceOnUse"><stop offset="0" stop-color="#005380"/><stop offset="1" stop-color="#0299ae"/></linearGradient><linearGradient id="Безымянный_градиент_5-2" x1="145.96" y1="154.87" x2="244.19" y2="154.87" xlink:href="#Безымянный_градиент_5"/><linearGradient id="Безымянный_градиент_5-3" x1="145.96" y1="135.21" x2="244.19" y2="135.21" xlink:href="#Безымянный_градиент_5"/><linearGradient id="Безымянный_градиент_21" x1="71.48" y1="201.72" x2="262.02" y2="201.72" gradientTransform="matrix(1, 0, 0, -1, 0, 400)" gradientUnits="userSpaceOnUse"><stop offset="0" stop-color="#005380"/><stop offset="1" stop-color="#017999"/></linearGradient><linearGradient id="Безымянный_градиент_21-2" x1="102.11" y1="180.36" x2="213.51" y2="180.36" xlink:href="#Безымянный_градиент_21"/><linearGradient id="Безымянный_градиент_10" x1="153.9" y1="154.88" x2="168.69" y2="154.88" gradientTransform="matrix(1, 0, 0, -1, 0, 400)" gradientUnits="userSpaceOnUse"><stop offset="0" stop-color="#005380"/><stop offset="1" stop-color="#017194"/></linearGradient><linearGradient id="Безымянный_градиент_10-2" x1="172.33" y1="154.86" x2="234.74" y2="154.86" xlink:href="#Безымянный_градиент_10"/></defs><title>secondblock_icon_23_mob-01</title><path class="cls-1" d="M74.92,18.58a5.91,5.91,0,1,1,5.91-5.91,5.91,5.91,0,0,1-5.91,5.91h0Zm0-9.81a3.91,3.91,0,1,0,3.91,3.91,3.91,3.91,0,0,0-3.91-3.91h0Z"/><path class="cls-2" d="M90.54,18.58a5.91,5.91,0,1,1,5.91-5.91h0a5.91,5.91,0,0,1-5.91,5.91h0Zm0-9.81a3.91,3.91,0,1,0,3.91,3.91,3.91,3.91,0,0,0-3.91-3.91h0Z"/><path class="cls-3" d="M105.74,18.58a5.91,5.91,0,1,1,5.91-5.91h0a5.91,5.91,0,0,1-5.91,5.91h0Zm0-9.81a3.91,3.91,0,1,0,3.91,3.91,3.91,3.91,0,0,0-3.91-3.91h0Z"/><polygon class="cls-4" points="243.88 227.66 146.46 227.66 158.12 215.88 232.21 215.88 243.88 227.66"/><polygon class="cls-5" points="146.46 232.69 146.46 257.57 164.49 257.57 243.69 257.57 243.69 235.87 243.69 232.69 146.46 232.69"/><polygon class="cls-6" points="146.46 260.97 146.46 268.61 164.49 268.61 243.69 268.61 243.69 261.95 243.69 260.97 146.46 260.97"/><path class="cls-7" d="M250,230.54a52.77,52.77,0,0,0-72.54-75.4,39.94,39.94,0,0,0-64.92,28.24,29.78,29.78,0,0,0-6.18-.56,34.43,34.43,0,0,0,0,68.85l32.9-.4"/><path class="cls-8" d="M213.07,204.74a31.84,31.84,0,0,0-47.1-11,23.65,23.65,0,0,0-15-5.34,24.17,24.17,0,0,0-24,22.22,16,16,0,0,0-3.64-.28,20.66,20.66,0,0,0,0,41.31"/><circle class="cls-9" cx="161.3" cy="245.12" r="6.89"/><rect class="cls-10" x="172.83" y="238.22" width="61.4" height="13.82"/></svg>