<svg id="Capa_1" data-name="Capa 1" xmlns="http://www.w3.org/2000/svg" viewBox="0 0 118.5 118"><defs><style>.cls-1{fill:none;stroke:#fff;stroke-miterlimit:10;stroke-width:5px;}</style></defs><title>secondblock_icon_23_mob-01</title><path class="cls-1" d="M65.12,34.2a22.08,22.08,0,0,0-13.82,4.89A16.87,16.87,0,0,0,26.4,42a19.86,19.86,0,0,0-3.88,10.59,12.3,12.3,0,0,0-2.74-.27c-8.43,0-15.26,7.34-15.26,16.4s6.83,16.4,15.26,16.4l14.58-.19s28.31,0.88,39,.18c11.48-.76,15.21-9.26,15.2-25.69C88.53,45.62,78,34.2,65.12,34.2Z"/><path class="cls-1" d="M108.87,51.76a18.47,18.47,0,0,1,.84,25.32"/><path class="cls-1" d="M98.79,55.51A18.49,18.49,0,0,1,99,73.79"/></svg>