<svg id="Capa_1" data-name="Capa 1" xmlns="http://www.w3.org/2000/svg" viewBox="0 0 118.5 118"><defs><style>.cls-1{fill:#fff;}</style></defs><title>secondblock_icon_23_mob-01</title><path class="cls-1" d="M9.25,64.84a4.06,4.06,0,0,1,1.69-3.07l30.49-19.3a1,1,0,0,1,1.69.93v2.19a4,4,0,0,1-1.7,3L16.28,64.13a14.44,14.44,0,0,0-1.7,1.14,14.44,14.44,0,0,0,1.7,1.14L41.42,81.89a4,4,0,0,1,1.7,3v2.19a1,1,0,0,1-1.69.93L10.94,68.76a4.06,4.06,0,0,1-1.69-3.07V64.84Z"/><path class="cls-1" d="M49.87,92.72a1.39,1.39,0,0,1-1.4-1.91L67.64,29.58a2.9,2.9,0,0,1,2.6-1.91h1a1.39,1.39,0,0,1,1.4,1.91L53.36,90.81a2.91,2.91,0,0,1-2.6,1.91H49.87Z"/><path class="cls-1" d="M111.67,65.78A4,4,0,0,1,110,68.84L79.49,88.06a1,1,0,0,1-1.69-.93V84.94a4,4,0,0,1,1.71-3l25.35-15.5a14.41,14.41,0,0,0,1.71-1.13,14.41,14.41,0,0,0-1.71-1.13L79.5,48.64a4,4,0,0,1-1.71-3V43.4a1,1,0,0,1,1.69-.93L110,61.69a4,4,0,0,1,1.69,3.07v1Z"/></svg>