<svg id="Capa_1" data-name="Capa 1" xmlns="http://www.w3.org/2000/svg" xmlns:xlink="http://www.w3.org/1999/xlink" viewBox="0 0 337.39 400"><defs><style>.cls-1{fill:url(#Безымянный_градиент_18);}.cls-2{fill:url(#Безымянный_градиент_19);}.cls-3{fill:url(#Безымянный_градиент_20);}.cls-4{fill:url(#Безымянный_градиент_20-2);}.cls-5,.cls-6,.cls-7{fill:none;stroke-miterlimit:10;}.cls-5{stroke:url(#Безымянный_градиент);}.cls-6{stroke:url(#Безымянный_градиент_36);}.cls-7{stroke:url(#Безымянный_градиент_37);}.cls-8{fill:url(#Безымянный_градиент_41);}.cls-9{fill:url(#Безымянный_градиент_41-2);}.cls-10{fill:url(#Безымянный_градиент_41-3);}.cls-11{fill:url(#Безымянный_градиент_41-4);}.cls-12{fill:url(#Безымянный_градиент_41-5);}.cls-13{fill:url(#Безымянный_градиент_41-6);}.cls-14{fill:url(#Безымянный_градиент_41-7);}.cls-15{fill:url(#Безымянный_градиент_41-8);}.cls-16{fill:url(#Безымянный_градиент_41-9);}.cls-17{fill:url(#Безымянный_градиент_41-10);}.cls-18{fill:url(#Безымянный_градиент_41-11);}.cls-19{fill:url(#Безымянный_градиент_41-12);}.cls-20{fill:url(#Безымянный_градиент_41-13);}.cls-21{fill:url(#Безымянный_градиент_41-14);}.cls-22{fill:url(#Безымянный_градиент_41-15);}.cls-23{fill:url(#Безымянный_градиент_41-16);}.cls-24{fill:url(#Безымянный_градиент_41-17);}.cls-25{fill:url(#Безымянный_градиент_41-18);}.cls-26{fill:url(#Безымянный_градиент_41-19);}.cls-27{fill:url(#Безымянный_градиент_41-20);}.cls-28{fill:url(#Безымянный_градиент_41-21);}.cls-29{fill:url(#Безымянный_градиент_41-22);}.cls-30{fill:url(#Безымянный_градиент_41-23);}.cls-31{fill:url(#Безымянный_градиент_41-24);}.cls-32{fill:url(#Безымянный_градиент_41-25);}.cls-33{fill:url(#Безымянный_градиент_41-26);}.cls-34{fill:url(#Безымянный_градиент_41-27);}.cls-35{fill:url(#Безымянный_градиент_41-28);}.cls-36{fill:url(#Безымянный_градиент_41-29);}</style><linearGradient id="Безымянный_градиент_18" x1="69.01" y1="383.33" x2="80.83" y2="383.33" gradientTransform="matrix(1, 0, 0, -1, 0, 396)" gradientUnits="userSpaceOnUse"><stop offset="0" stop-color="#005380"/><stop offset="0.62" stop-color="#01678e"/><stop offset="1" stop-color="#017496"/></linearGradient><linearGradient id="Безымянный_градиент_19" x1="84.63" y1="383.33" x2="96.45" y2="383.33" xlink:href="#Безымянный_градиент_18"/><linearGradient id="Безымянный_градиент_20" x1="99.83" y1="383.33" x2="111.65" y2="383.33" xlink:href="#Безымянный_градиент_18"/><linearGradient id="Безымянный_градиент_20-2" x1="195.98" y1="354.56" x2="207.8" y2="354.56" xlink:href="#Безымянный_градиент_18"/><linearGradient id="Безымянный_градиент" x1="70.91" y1="354.56" x2="178" y2="354.56" gradientTransform="matrix(1, 0, 0, -1, 0, 396)" gradientUnits="userSpaceOnUse"><stop offset="0" stop-color="#005380"/><stop offset="1" stop-color="#0299ae"/></linearGradient><linearGradient id="Безымянный_градиент_36" x1="225.77" y1="354.56" x2="263.34" y2="354.56" gradientTransform="matrix(1, 0, 0, -1, 0, 396)" gradientUnits="userSpaceOnUse"><stop offset="0" stop-color="#007093"/><stop offset="1" stop-color="#0299ae"/></linearGradient><linearGradient id="Безымянный_градиент_37" x1="82.36" y1="107.26" x2="243.98" y2="107.26" gradientTransform="matrix(1, 0, 0, -1, 0, 396)" gradientUnits="userSpaceOnUse"><stop offset="0" stop-color="#005380"/><stop offset="1" stop-color="#017194"/></linearGradient><linearGradient id="Безымянный_градиент_41" x1="100.8" y1="94.32" x2="113.79" y2="94.32" gradientUnits="userSpaceOnUse"><stop offset="0" stop-color="#005b85"/><stop offset="1" stop-color="#017194"/></linearGradient><linearGradient id="Безымянный_градиент_41-2" x1="116.7" y1="91.99" x2="129.5" y2="91.99" xlink:href="#Безымянный_градиент_41"/><linearGradient id="Безымянный_градиент_41-3" x1="133.17" y1="92.32" x2="136.22" y2="92.32" xlink:href="#Безымянный_градиент_41"/><linearGradient id="Безымянный_градиент_41-4" x1="138.34" y1="95" x2="151.17" y2="95" xlink:href="#Безымянный_градиент_41"/><linearGradient id="Безымянный_градиент_41-5" x1="158.45" y1="95" x2="169.14" y2="95" xlink:href="#Безымянный_градиент_41"/><linearGradient id="Безымянный_градиент_41-6" x1="171.97" y1="91.83" x2="174.44" y2="91.83" xlink:href="#Безымянный_градиент_41"/><linearGradient id="Безымянный_градиент_41-7" x1="177.52" y1="95" x2="188.32" y2="95" xlink:href="#Безымянный_градиент_41"/><linearGradient id="Безымянный_градиент_41-8" x1="191.12" y1="94.98" x2="200" y2="94.98" xlink:href="#Безымянный_градиент_41"/><linearGradient id="Безымянный_градиент_41-9" x1="202.21" y1="94.98" x2="211.09" y2="94.98" xlink:href="#Безымянный_градиент_41"/><linearGradient id="Безымянный_градиент_41-10" x1="213.33" y1="94.24" x2="227.78" y2="94.24" xlink:href="#Безымянный_градиент_41"/><linearGradient id="Безымянный_градиент_41-11" x1="99.9" y1="119.61" x2="104.1" y2="119.61" xlink:href="#Безымянный_градиент_41"/><linearGradient id="Безымянный_градиент_41-12" x1="104.07" y1="119.61" x2="108.27" y2="119.61" xlink:href="#Безымянный_градиент_41"/><linearGradient id="Безымянный_градиент_41-13" x1="110.85" y1="125.59" x2="123.78" y2="125.59" xlink:href="#Безымянный_градиент_41"/><linearGradient id="Безымянный_градиент_41-14" x1="126.81" y1="128.75" x2="138.34" y2="128.75" xlink:href="#Безымянный_градиент_41"/><linearGradient id="Безымянный_градиент_41-15" x1="142.21" y1="125.59" x2="155.14" y2="125.59" xlink:href="#Безымянный_градиент_41"/><linearGradient id="Безымянный_градиент_41-16" x1="158.14" y1="125.59" x2="171.08" y2="125.59" xlink:href="#Безымянный_градиент_41"/><linearGradient id="Безымянный_градиент_41-17" x1="174.18" y1="125.43" x2="176.65" y2="125.43" xlink:href="#Безымянный_градиент_41"/><linearGradient id="Безымянный_градиент_41-18" x1="179.81" y1="128.58" x2="191.77" y2="128.58" xlink:href="#Безымянный_градиент_41"/><linearGradient id="Безымянный_градиент_41-19" x1="99.96" y1="159.54" x2="115.44" y2="159.54" xlink:href="#Безымянный_градиент_41"/><linearGradient id="Безымянный_градиент_41-20" x1="118.97" y1="162.04" x2="125.77" y2="162.04" xlink:href="#Безымянный_градиент_41"/><linearGradient id="Безымянный_градиент_41-21" x1="126.98" y1="162.2" x2="140.22" y2="162.2" xlink:href="#Безымянный_градиент_41"/><linearGradient id="Безымянный_градиент_41-22" x1="143.25" y1="162.35" x2="154.78" y2="162.35" xlink:href="#Безымянный_градиент_41"/><linearGradient id="Безымянный_градиент_41-23" x1="158.64" y1="164.81" x2="171.58" y2="164.81" xlink:href="#Безымянный_градиент_41"/><linearGradient id="Безымянный_градиент_41-24" x1="172.67" y1="153.21" x2="176.87" y2="153.21" xlink:href="#Безымянный_градиент_41"/><linearGradient id="Безымянный_градиент_41-25" x1="176.84" y1="153.21" x2="181.04" y2="153.21" xlink:href="#Безымянный_градиент_41"/><linearGradient id="Безымянный_градиент_41-26" x1="182.16" y1="164.16" x2="186.67" y2="164.16" xlink:href="#Безымянный_градиент_41"/><linearGradient id="Безымянный_градиент_41-27" x1="188.44" y1="153.21" x2="192.64" y2="153.21" xlink:href="#Безымянный_градиент_41"/><linearGradient id="Безымянный_градиент_41-28" x1="192.61" y1="153.21" x2="196.81" y2="153.21" xlink:href="#Безымянный_градиент_41"/><linearGradient id="Безымянный_градиент_41-29" x1="199.3" y1="161.52" x2="212.29" y2="161.52" xlink:href="#Безымянный_градиент_41"/></defs><title>secondblock_icon_cod</title><path class="cls-1" d="M74.92,18.58a5.91,5.91,0,1,1,5.91-5.91,5.91,5.91,0,0,1-5.91,5.91h0Zm0-9.81a3.91,3.91,0,1,0,3.91,3.91,3.91,3.91,0,0,0-3.91-3.91h0Z"/><path class="cls-2" d="M90.54,18.58a5.91,5.91,0,1,1,5.91-5.91,5.91,5.91,0,0,1-5.91,5.91h0Zm0-9.81a3.91,3.91,0,1,0,3.91,3.91,3.91,3.91,0,0,0-3.91-3.91h0Z"/><path class="cls-3" d="M105.74,18.58a5.91,5.91,0,1,1,5.91-5.91,5.91,5.91,0,0,1-5.91,5.91h0Zm0-9.81a3.91,3.91,0,1,0,3.91,3.91,3.91,3.91,0,0,0-3.91-3.91h0Z"/><path class="cls-4" d="M201.89,47.35a5.91,5.91,0,1,1,5.91-5.91,5.91,5.91,0,0,1-5.91,5.91h0Zm0-9.81a3.91,3.91,0,1,0,3.91,3.91,3.91,3.91,0,0,0-3.91-3.91h0Z"/><line class="cls-5" x1="178" y1="41.44" x2="70.91" y2="41.44"/><line class="cls-6" x1="263.34" y1="41.44" x2="225.77" y2="41.44"/><path class="cls-7" d="M233.55,290.05v-2.93l9.88-4.25-1.75-12.7L230.87,269q-0.87-3-2-6l7.71-7.28-6-11.34L220.14,247q-1.87-2.55-4-4.93l4.73-9.4-9.51-8.6-8.92,6q-2.65-1.76-5.43-3.31l1.22-10.41-11.87-4.84L180,220.28q-3.25-.78-6.61-1.25l-3.07-10.65-12.81.48-2.37,10q-3.09.38-6.1,1l-6.61-9.1-11.89,4.83,1.22,10.42q-2.69,1.38-5.24,3l-9.51-6.4-9.51,8.6,4.84,9.58q-2,2.14-3.79,4.45l-11.34-2.81-6,11.34,7.94,7.48q-1.09,2.61-2,5.29L85.4,267.91l-1.75,12.7L93.86,285c0,0.51,0,1-.06,1.53,0,1.32,0,2.65,0,4l-10.87,5.29,2.7,12.53L96.87,309q0.8,2.58,1.79,5.07l-8.49,8.82L97,333.72l10.91-3.31q1.59,2.11,3.35,4.09l-5,11.29,10.12,7.86,9.15-6.83q2.21,1.44,4.52,2.71l-0.84,12.32,12.24,3.95,6.24-9.5q2.4,0.56,4.86,1l2.69,11.38L168,369.11l3.31-11.39q2.72-.3,5.38-0.8l6.34,9.66,12.2-3.93L194.48,351q2.51-1.24,4.91-2.65l9.12,6.8,10.1-7.88L214,336.79q2-2.07,3.82-4.3l10.7,3.21,6.82-10.85-7.8-8.1q1.21-2.71,2.2-5.54l10.91-.63,2.72-12.5-9.92-4.86C233.46,292.17,233.52,291.12,233.55,290.05Zm-16.19,11.65-19-8.78a35.32,35.32,0,0,0,.3-3.76,34.84,34.84,0,0,0-10.37-25.73l8.86-19.22A55.2,55.2,0,0,1,217.36,301.71ZM109.74,275.9l19.18,8.84c-0.09.87-.15,1.76-0.18,2.65a34.87,34.87,0,0,0,12.08,27.31l-8.74,19A55.31,55.31,0,0,1,109.74,275.9ZM153.19,288a10.48,10.48,0,1,1,10.22,10.74h0A10.48,10.48,0,0,1,153.2,288h0Zm15.71-34.28a35.24,35.24,0,0,0-4.35-.39A34.86,34.86,0,0,0,137.66,265l-19-8.78a55.23,55.23,0,0,1,59-21.44Zm-8.16,69.35c0.66,0.06,1.37.1,2.06,0.12A34.85,34.85,0,0,0,189,312.42l19.14,8.82a55.21,55.21,0,0,1-56.22,21.09Z"/><path class="cls-8" d="M100.8,93.57l13-6.69v1.93L102.84,94.3v0.06l10.95,5.49v1.93l-13-6.69V93.57Z"/><path class="cls-9" d="M129.38,81.89V98.27c0,1.2,0,2.58.11,3.5h-2.21l-0.11-2.35h-0.06a5,5,0,0,1-4.62,2.66c-3.28,0-5.8-2.77-5.8-6.89,0-4.51,2.77-7.28,6.08-7.28A4.53,4.53,0,0,1,126.86,90h0.06V81.89h2.46Zm-2.46,11.84a4.35,4.35,0,0,0-.11-1,3.62,3.62,0,0,0-3.56-2.86c-2.55,0-4.06,2.24-4.06,5.24,0,2.74,1.34,5,4,5a3.7,3.7,0,0,0,3.61-2.94,4.28,4.28,0,0,0,.11-1.06V93.74Z"/><path class="cls-10" d="M136.22,84.41a1.53,1.53,0,0,1-3.05,0,1.5,1.5,0,0,1,1.54-1.54A1.46,1.46,0,0,1,136.22,84.41Zm-2.74,17.36V88.22h2.46v13.55h-2.46Z"/><path class="cls-11" d="M141,88.22l2.66,7.62a35.1,35.1,0,0,1,1.09,3.47h0.08c0.31-1.12.7-2.24,1.15-3.47l2.63-7.62h2.58l-5.32,13.55H143.5l-5.15-13.55H141Z"/><path class="cls-12" d="M169.09,101.27a9.08,9.08,0,0,1-3.89.78c-4.09,0-6.75-2.77-6.75-6.92a6.89,6.89,0,0,1,7.28-7.2,8.24,8.24,0,0,1,3.42.7l-0.56,1.9a5.72,5.72,0,0,0-2.86-.64c-3.11,0-4.79,2.3-4.79,5.12,0,3.14,2,5.07,4.7,5.07a7,7,0,0,0,3-.67Z"/><path class="cls-13" d="M172,81.89h2.46v19.88H172V81.89Z"/><path class="cls-14" d="M186.08,101.77l-0.2-1.71H185.8a5,5,0,0,1-4.14,2,3.86,3.86,0,0,1-4.14-3.89c0-3.28,2.91-5.07,8.15-5V92.87a2.79,2.79,0,0,0-3.08-3.14,6.75,6.75,0,0,0-3.53,1l-0.56-1.62a8.41,8.41,0,0,1,4.45-1.2c4.14,0,5.15,2.83,5.15,5.54v5.07a19.08,19.08,0,0,0,.22,3.25h-2.24Zm-0.36-6.92c-2.69-.06-5.74.42-5.74,3.05a2.18,2.18,0,0,0,2.32,2.35A3.37,3.37,0,0,0,185.58,98a2.58,2.58,0,0,0,.14-0.78V94.86Z"/><path class="cls-15" d="M191.74,99.25a6.45,6.45,0,0,0,3.25,1c1.79,0,2.63-.9,2.63-2s-0.7-1.82-2.52-2.49c-2.44-.87-3.58-2.21-3.58-3.84,0-2.18,1.76-4,4.68-4a6.77,6.77,0,0,1,3.33.84l-0.62,1.79a5.28,5.28,0,0,0-2.77-.78c-1.46,0-2.27.84-2.27,1.85s0.81,1.62,2.58,2.3C198.79,94.8,200,96,200,98c0,2.38-1.85,4.06-5.07,4.06a7.73,7.73,0,0,1-3.81-.92Z"/><path class="cls-16" d="M202.83,99.25a6.45,6.45,0,0,0,3.25,1c1.79,0,2.63-.9,2.63-2s-0.7-1.82-2.52-2.49c-2.44-.87-3.58-2.21-3.58-3.84,0-2.18,1.76-4,4.68-4a6.77,6.77,0,0,1,3.33.84L210,90.54a5.28,5.28,0,0,0-2.77-.78c-1.46,0-2.27.84-2.27,1.85s0.81,1.62,2.58,2.3c2.35,0.9,3.56,2.07,3.56,4.09,0,2.38-1.85,4.06-5.07,4.06a7.73,7.73,0,0,1-3.81-.92Z"/><path class="cls-17" d="M213.33,92.34V90.66h14.45v1.68H213.33Zm0,5.49V96.14h14.45v1.68H213.33Z"/><path class="cls-18" d="M104.1,116.19a32.33,32.33,0,0,1-2.63,6.64l-1.57.2a39.58,39.58,0,0,0,1.65-6.58Z"/><path class="cls-19" d="M108.27,116.19a32.33,32.33,0,0,1-2.63,6.64l-1.57.2a39.58,39.58,0,0,0,1.65-6.58Z"/><path class="cls-20" d="M110.85,135.37c0.06-.92.11-2.3,0.11-3.5V115.49h2.44V124h0.06a5,5,0,0,1,4.62-2.49c3.36,0,5.74,2.8,5.71,6.92,0,4.84-3.05,7.25-6.08,7.25a4.83,4.83,0,0,1-4.54-2.55h-0.08L113,135.37h-2.13Zm2.55-5.43a4.64,4.64,0,0,0,.11.9,3.8,3.8,0,0,0,3.7,2.88c2.58,0,4.12-2.1,4.12-5.21,0-2.72-1.4-5-4-5a3.93,3.93,0,0,0-3.75,3,4.88,4.88,0,0,0-.14,1v2.44Z"/><path class="cls-21" d="M138.23,131.68c0,1.4,0,2.63.11,3.7h-2.18L136,133.16H136a5.1,5.1,0,0,1-4.48,2.52c-2.13,0-4.68-1.18-4.68-5.94v-7.92h2.46v7.5c0,2.58.78,4.31,3,4.31a3.56,3.56,0,0,0,3.25-2.24,3.61,3.61,0,0,0,.22-1.26v-8.32h2.46v9.86Z"/><path class="cls-22" d="M142.21,135.37c0.06-.92.11-2.3,0.11-3.5V115.49h2.44V124h0.06a5,5,0,0,1,4.62-2.49c3.36,0,5.74,2.8,5.71,6.92,0,4.84-3.05,7.25-6.08,7.25a4.83,4.83,0,0,1-4.54-2.55h-0.08l-0.11,2.24h-2.13Zm2.55-5.43a4.64,4.64,0,0,0,.11.9,3.8,3.8,0,0,0,3.7,2.88c2.58,0,4.12-2.1,4.12-5.21,0-2.72-1.4-5-4-5a3.93,3.93,0,0,0-3.75,3,4.88,4.88,0,0,0-.14,1v2.44Z"/><path class="cls-23" d="M158.14,135.37c0.06-.92.11-2.3,0.11-3.5V115.49h2.44V124h0.06a5,5,0,0,1,4.62-2.49c3.36,0,5.74,2.8,5.71,6.92,0,4.84-3.05,7.25-6.08,7.25a4.83,4.83,0,0,1-4.54-2.55h-0.08l-0.11,2.24h-2.13Zm2.55-5.43a4.64,4.64,0,0,0,.11.9,3.8,3.8,0,0,0,3.7,2.88c2.58,0,4.12-2.1,4.12-5.21,0-2.72-1.4-5-4-5a3.93,3.93,0,0,0-3.75,3,4.88,4.88,0,0,0-.14,1v2.44Z"/><path class="cls-24" d="M174.18,115.49h2.46v19.88h-2.46V115.49Z"/><path class="cls-25" d="M182.16,129c0.06,3.33,2.18,4.7,4.65,4.7a8.91,8.91,0,0,0,3.75-.7l0.42,1.76a11,11,0,0,1-4.51.84c-4.17,0-6.66-2.74-6.66-6.83s2.41-7.31,6.36-7.31c4.42,0,5.6,3.89,5.6,6.38a9.23,9.23,0,0,1-.08,1.15h-9.52Zm7.22-1.76c0-1.57-.64-4-3.42-4-2.49,0-3.58,2.3-3.78,4h7.2Z"/><path class="cls-26" d="M115.44,168.13a17.59,17.59,0,0,1-5.8,1,8.86,8.86,0,0,1-9.69-9.52c0-5.63,3.89-9.74,10.22-9.74a11.67,11.67,0,0,1,4.7.87l-0.59,2a9.78,9.78,0,0,0-4.17-.81c-4.59,0-7.59,2.86-7.59,7.59s2.88,7.62,7.28,7.62a7.94,7.94,0,0,0,3.25-.5V161h-3.84v-2h6.22v9.07Z"/><path class="cls-27" d="M119.08,159.65c0-1.6,0-3-.11-4.23h2.16l0.08,2.66h0.11a4.07,4.07,0,0,1,3.75-3,2.68,2.68,0,0,1,.7.08v2.32a3.72,3.72,0,0,0-.84-0.08,3.46,3.46,0,0,0-3.3,3.16,7,7,0,0,0-.11,1.15V169h-2.44v-9.32Z"/><path class="cls-28" d="M140.22,162.08c0,5-3.47,7.2-6.75,7.2-3.67,0-6.5-2.69-6.5-7,0-4.54,3-7.2,6.72-7.2S140.22,157.94,140.22,162.08Zm-10.75.14c0,3,1.71,5.21,4.12,5.21s4.12-2.21,4.12-5.26c0-2.3-1.15-5.21-4.06-5.21S129.47,159.65,129.47,162.22Z"/><path class="cls-29" d="M154.67,165.28c0,1.4,0,2.63.11,3.7H152.6l-0.14-2.21H152.4a5.1,5.1,0,0,1-4.48,2.52c-2.13,0-4.68-1.18-4.68-5.94v-7.92h2.46v7.5c0,2.58.78,4.31,3,4.31A3.56,3.56,0,0,0,152,165a3.62,3.62,0,0,0,.22-1.26v-8.32h2.46v9.86Z"/><path class="cls-30" d="M158.76,159.84c0-1.74-.06-3.14-0.11-4.42h2.21l0.11,2.32H161a5.33,5.33,0,0,1,4.82-2.63c3.28,0,5.74,2.77,5.74,6.89,0,4.87-3,7.28-6.16,7.28a4.75,4.75,0,0,1-4.17-2.13h-0.06v7.36h-2.44V159.84Zm2.44,3.61a5.59,5.59,0,0,0,.11,1,3.8,3.8,0,0,0,3.7,2.88c2.6,0,4.12-2.13,4.12-5.24,0-2.72-1.43-5-4-5a3.93,3.93,0,0,0-3.72,3.05,4,4,0,0,0-.17,1v2.32Z"/><path class="cls-31" d="M176.87,149.79a32.33,32.33,0,0,1-2.63,6.64l-1.57.2a39.6,39.6,0,0,0,1.65-6.58Z"/><path class="cls-32" d="M181,149.79a32.33,32.33,0,0,1-2.63,6.64l-1.57.2A39.6,39.6,0,0,0,178.5,150Z"/><path class="cls-33" d="M182.16,172.42a40.34,40.34,0,0,0,1.68-6.69l2.72-.28a35.79,35.79,0,0,1-2.69,6.8Zm1.2-14.76A1.65,1.65,0,0,1,185,155.9a1.75,1.75,0,0,1,0,3.5A1.64,1.64,0,0,1,183.37,157.66Z"/><path class="cls-34" d="M192.64,149.79a32.33,32.33,0,0,1-2.63,6.64l-1.57.2a39.6,39.6,0,0,0,1.65-6.58Z"/><path class="cls-35" d="M196.81,149.79a32.33,32.33,0,0,1-2.63,6.64l-1.57.2a39.6,39.6,0,0,0,1.65-6.58Z"/><path class="cls-36" d="M212.29,162.31l-13,6.66V167l11-5.49V161.5l-11-5.49v-1.93l13,6.66v1.57Z"/></svg>