<svg id="Capa_1" data-name="Capa 1" xmlns="http://www.w3.org/2000/svg" viewBox="0 0 118.5 118"><defs><style>.cls-1{fill:none;stroke:#059faa;stroke-miterlimit:10;stroke-width:5px;}</style></defs><title>secondblock_icon_23_mob-01</title><path class="cls-1" d="M59.25,14a44.4,44.4,0,1,0,44.4,44.4A44.45,44.45,0,0,0,59.25,14Z"/><path class="cls-1" d="M61.28,14.12A44.75,44.75,0,0,0,53,15c-0.41.74-1.1,1.8-1.94,3.1-2.5,3.84-6.27,9.65-6.42,12.82-0.08,1.7-2.31,2.49-4.68,3.33-1.31.47-3.11,1.11-3.43,1.68a13.72,13.72,0,0,0-1.22,5,15.11,15.11,0,0,1-1.42,5.62,1.62,1.62,0,0,0-.13,1.4c0.57,1.66,3.28,3.32,5.64,4.31,1.37,0.58,4,.15,6.14-0.2,2.48-.41,4-0.66,4.63.26a14.21,14.21,0,0,0,2.52.89c3.2,1,7.18,2.14,7.35,4.85,0.14,2.36-1.43,4.08-2.81,5.6s-2.53,2.78-2.27,4.47c0.82,5.4,8.54,10.64,8.62,10.69l0.2,0.13,0.1,0.22c1.7,3.79,4.91,8.22,6.7,8.45,2.23,0.29,9-5.29,13.18-10.17a23.08,23.08,0,0,0-1.54-7.48c-0.34-1-.69-2-1-3.19a2.25,2.25,0,0,1,.31-2c0.93-1.27,3.14-1.39,5.48-1.53,1.49-.09,3.54-0.21,4-0.75,1.55-1.9-.94-7.31-2.59-10.89-0.56-1.21-1-2.25-1.36-3.11-1-2.58,1.36-5.2,3.42-7.51,1.09-1.23,2.45-2.75,2.33-3.4h0c-0.48-2.54-5-13.13-7.08-14.83"/></svg>