<svg id="Capa_1" data-name="Capa 1" xmlns="http://www.w3.org/2000/svg" xmlns:xlink="http://www.w3.org/1999/xlink" viewBox="0 0 337.39 400"><defs><style>.cls-1,.cls-13,.cls-14,.cls-15,.cls-16,.cls-17,.cls-18,.cls-19,.cls-20,.cls-21,.cls-22,.cls-23,.cls-25,.cls-4,.cls-5,.cls-7,.cls-8,.cls-9{fill:none;}.cls-1,.cls-13,.cls-14,.cls-15,.cls-16,.cls-17,.cls-18,.cls-19,.cls-2,.cls-20,.cls-21,.cls-22,.cls-23,.cls-24,.cls-25,.cls-3,.cls-5,.cls-6,.cls-7,.cls-8,.cls-9{stroke-miterlimit:10;}.cls-1{stroke:url(#Безымянный_градиент);}.cls-2,.cls-24,.cls-3,.cls-6{fill:#f4f4f4;}.cls-2{stroke:url(#Безымянный_градиент_2);}.cls-3{stroke:url(#Безымянный_градиент_5);}.cls-5{stroke:url(#Безымянный_градиент_4);}.cls-6{stroke:url(#Безымянный_градиент_5-2);}.cls-7{stroke:url(#Безымянный_градиент_6);}.cls-8{stroke:url(#Безымянный_градиент_7);}.cls-9{stroke:url(#Безымянный_градиент_8);}.cls-10{fill:url(#Безымянный_градиент_9);}.cls-11{fill:url(#Безымянный_градиент_10);}.cls-12{fill:url(#Безымянный_градиент_11);}.cls-13{stroke:url(#Безымянный_градиент_12);}.cls-14{stroke:url(#Безымянный_градиент_13);}.cls-15{stroke:url(#Безымянный_градиент_14);}.cls-16{stroke:url(#Безымянный_градиент_15);}.cls-17{stroke:url(#Безымянный_градиент_16);}.cls-18{stroke:url(#Безымянный_градиент_17);}.cls-19{stroke:url(#Безымянный_градиент_18);}.cls-20{stroke:url(#Безымянный_градиент_19);}.cls-21{stroke:url(#Безымянный_градиент_20);}.cls-22{stroke:url(#Безымянный_градиент_21);}.cls-23{stroke:url(#Безымянный_градиент_22);}.cls-24{stroke:url(#Безымянный_градиент_23);}.cls-25{stroke:url(#Безымянный_градиент_24);}</style><linearGradient id="Безымянный_градиент" x1="66.15" y1="669.33" x2="111.79" y2="669.33" gradientTransform="matrix(1, 0, 0, -1, 0, 726)" gradientUnits="userSpaceOnUse"><stop offset="0" stop-color="#005380"/><stop offset="1" stop-color="#0299ae"/></linearGradient><linearGradient id="Безымянный_градиент_2" x1="65.2" y1="650.42" x2="328.22" y2="650.42" xlink:href="#Безымянный_градиент"/><linearGradient id="Безымянный_градиент_5" x1="111.02" y1="679.75" x2="329.43" y2="679.75" xlink:href="#Безымянный_градиент"/><linearGradient id="Безымянный_градиент_4" x1="223.9" y1="531.53" x2="276.12" y2="531.53" gradientTransform="matrix(1, 0, 0, -1, 0, 726)" gradientUnits="userSpaceOnUse"><stop offset="0" stop-color="#017093"/><stop offset="1" stop-color="#0299ae"/></linearGradient><linearGradient id="Безымянный_градиент_5-2" x1="1.98" y1="379.04" x2="188.88" y2="379.04" xlink:href="#Безымянный_градиент"/><linearGradient id="Безымянный_градиент_6" x1="32.94" y1="397.11" x2="121.4" y2="397.11" xlink:href="#Безымянный_градиент"/><linearGradient id="Безымянный_градиент_7" x1="34.45" y1="380.42" x2="156.4" y2="380.42" xlink:href="#Безымянный_градиент"/><linearGradient id="Безымянный_градиент_8" x1="34.45" y1="363.71" x2="156.4" y2="363.71" xlink:href="#Безымянный_градиент"/><linearGradient id="Безымянный_градиент_9" x1="66.65" y1="713.81" x2="78.47" y2="713.81" gradientTransform="matrix(1, 0, 0, -1, 0, 726)" gradientUnits="userSpaceOnUse"><stop offset="0" stop-color="#005380"/><stop offset="0.62" stop-color="#01678e"/><stop offset="1" stop-color="#017496"/></linearGradient><linearGradient id="Безымянный_градиент_10" x1="82.27" y1="713.81" x2="94.09" y2="713.81" xlink:href="#Безымянный_градиент_9"/><linearGradient id="Безымянный_градиент_11" x1="97.47" y1="713.81" x2="109.29" y2="713.81" xlink:href="#Безымянный_градиент_9"/><linearGradient id="Безымянный_градиент_12" x1="187.86" y1="388.75" x2="259.6" y2="388.75" xlink:href="#Безымянный_градиент"/><linearGradient id="Безымянный_градиент_13" x1="66.97" y1="580.49" x2="162.59" y2="580.49" xlink:href="#Безымянный_градиент"/><linearGradient id="Безымянный_градиент_14" x1="66.97" y1="478.18" x2="162.59" y2="478.18" xlink:href="#Безымянный_градиент"/><linearGradient id="Безымянный_градиент_15" x1="296.41" y1="680.22" x2="315.41" y2="680.22" xlink:href="#Безымянный_градиент_4"/><linearGradient id="Безымянный_градиент_16" x1="187.53" y1="534.17" x2="224.9" y2="534.17" xlink:href="#Безымянный_градиент_4"/><linearGradient id="Безымянный_градиент_17" x1="232.95" y1="522.28" x2="268.1" y2="522.28" xlink:href="#Безымянный_градиент_4"/><linearGradient id="Безымянный_градиент_18" x1="232.95" y1="513.6" x2="268.1" y2="513.6" xlink:href="#Безымянный_градиент_4"/><linearGradient id="Безымянный_градиент_19" x1="232.95" y1="504.1" x2="268.1" y2="504.1" xlink:href="#Безымянный_градиент_4"/><linearGradient id="Безымянный_градиент_20" x1="239.92" y1="551.43" x2="261.45" y2="551.43" xlink:href="#Безымянный_градиент_4"/><linearGradient id="Безымянный_градиент_21" x1="244.55" y1="562.97" x2="256.71" y2="562.97" xlink:href="#Безымянный_градиент_4"/><linearGradient id="Безымянный_градиент_22" x1="188.76" y1="589.68" x2="275.36" y2="589.68" xlink:href="#Безымянный_градиент_4"/><linearGradient id="Безымянный_градиент_23" x1="2.35" y1="-34.31" x2="259.1" y2="-34.31" gradientTransform="translate(0 330)" xlink:href="#Безымянный_градиент"/><linearGradient id="Безымянный_градиент_24" x1="66.88" y1="-133.62" x2="162.59" y2="-133.62" gradientTransform="translate(0 330)" xlink:href="#Безымянный_градиент"/></defs><title>secondblock_icon_20_mob-02-01</title><polyline class="cls-1" points="111.53 27.23 66.66 54.52 67.39 86.53"/><polyline class="cls-2" points="111.53 65.28 67.39 86.53 259.25 86.53 328.07 64.61"/><path class="cls-3" d="M328.93,65.28H111.52V27.22H328.93V65.28Z"/><polygon class="cls-4" points="225.08 139.82 225.08 249.13 274.94 249.13 274.94 237.78 274.94 183.38 274.94 139.82 225.08 139.82"/><path class="cls-5" d="M275.61,249.8H224.4V139.14h51.22V249.8h0Z"/><rect class="cls-6" x="2.48" y="305.2" width="185.9" height="83.51"/><rect class="cls-7" x="33.44" y="326.54" width="87.46" height="4.7"/><rect class="cls-8" x="34.95" y="343.23" width="120.95" height="4.7"/><rect class="cls-9" x="34.95" y="359.94" width="120.95" height="4.7"/><path class="cls-10" d="M72.56,18.1a5.91,5.91,0,1,1,5.91-5.91,5.91,5.91,0,0,1-5.91,5.91h0Zm0-9.81a3.91,3.91,0,1,0,3.91,3.91,3.91,3.91,0,0,0-3.91-3.91h0Z"/><path class="cls-11" d="M88.18,18.1a5.91,5.91,0,1,1,5.91-5.91h0a5.91,5.91,0,0,1-5.91,5.91h0Zm0-9.81a3.91,3.91,0,1,0,3.91,3.91,3.91,3.91,0,0,0-3.91-3.91h0Z"/><path class="cls-12" d="M103.38,18.1a5.91,5.91,0,1,1,5.91-5.91h0a5.91,5.91,0,0,1-5.91,5.91h0Zm0-9.81a3.91,3.91,0,1,0,3.91,3.91,3.91,3.91,0,0,0-3.91-3.91h0Z"/><polyline class="cls-13" points="188.38 306.06 259.1 286.2 259.1 362.94 188.03 388.48"/><polyline class="cls-14" points="67.47 158.49 67.47 133.03 162.09 133.03 162.09 158.49"/><polyline class="cls-15" points="162.09 234.54 162.09 260.61 67.47 260.61 67.47 234.54"/><circle class="cls-16" cx="305.91" cy="45.78" r="9"/><polygon class="cls-17" points="188.03 133.03 188.03 204.83 224.4 249.81 224.4 139.82 188.03 133.03"/><rect class="cls-18" x="233.45" y="201.43" width="34.15" height="4.59"/><rect class="cls-19" x="233.45" y="210.1" width="34.15" height="4.59"/><rect class="cls-20" x="233.45" y="219.61" width="34.15" height="4.59"/><path class="cls-21" d="M250.66,168.78c-11.07,0-10.19,11.59-10.19,11.59h20.45S262.42,168.78,250.66,168.78Z"/><circle class="cls-22" cx="250.63" cy="163.03" r="5.58"/><polyline class="cls-23" points="275.27 139.61 240.42 133.04 188.76 133.14"/><polyline class="cls-24" points="259.1 286.2 66.09 286.2 2.49 305.2"/><rect class="cls-25" x="67.38" y="180.37" width="94.71" height="32.02"/></svg>