<svg id="Capa_1" data-name="Capa 1" xmlns="http://www.w3.org/2000/svg" xmlns:xlink="http://www.w3.org/1999/xlink" viewBox="0 0 337.39 400"><defs><style>.cls-1{fill:url(#Безымянный_градиент);}.cls-2{fill:url(#Безымянный_градиент_2);}.cls-3{fill:url(#Безымянный_градиент_3);}.cls-4{fill:url(#Безымянный_градиент_4);}.cls-10,.cls-11,.cls-12,.cls-13,.cls-14,.cls-15,.cls-16,.cls-17,.cls-5,.cls-6,.cls-7,.cls-8,.cls-9{fill:none;}.cls-10,.cls-11,.cls-12,.cls-13,.cls-14,.cls-15,.cls-16,.cls-17,.cls-18,.cls-19,.cls-20,.cls-5,.cls-6,.cls-7,.cls-8,.cls-9{stroke-miterlimit:10;}.cls-5{stroke:url(#Безымянный_градиент_5);}.cls-6{stroke:url(#Безымянный_градиент_6);}.cls-7{stroke:url(#Безымянный_градиент_9);}.cls-8{stroke:url(#Безымянный_градиент_10);}.cls-9{stroke:url(#Безымянный_градиент_11);}.cls-10{stroke:url(#Безымянный_градиент_12);}.cls-11{stroke:url(#Безымянный_градиент_13);}.cls-12{stroke:url(#Безымянный_градиент_14);}.cls-13{stroke:url(#Безымянный_градиент_15);}.cls-14{stroke:url(#Безымянный_градиент_16);}.cls-15{stroke:url(#Безымянный_градиент_17);}.cls-16{stroke:url(#Безымянный_градиент_18);}.cls-17{stroke:url(#Безымянный_градиент_19);}.cls-18,.cls-19,.cls-20{fill:#f4f4f4;}.cls-18{stroke:url(#Безымянный_градиент_7);}.cls-19{stroke:url(#Безымянный_градиент_7-2);}.cls-20{stroke:url(#Безымянный_градиент_7-3);}</style><linearGradient id="Безымянный_градиент" x1="69.01" y1="-83.33" x2="80.83" y2="-83.33" gradientTransform="translate(0 96)" gradientUnits="userSpaceOnUse"><stop offset="0" stop-color="#005380"/><stop offset="0.62" stop-color="#01678e"/><stop offset="1" stop-color="#017496"/></linearGradient><linearGradient id="Безымянный_градиент_2" x1="84.63" y1="-83.33" x2="96.45" y2="-83.33" xlink:href="#Безымянный_градиент"/><linearGradient id="Безымянный_градиент_3" x1="99.83" y1="-83.33" x2="111.65" y2="-83.33" xlink:href="#Безымянный_градиент"/><linearGradient id="Безымянный_градиент_4" x1="195.98" y1="-54.56" x2="207.8" y2="-54.56" xlink:href="#Безымянный_градиент"/><linearGradient id="Безымянный_градиент_5" x1="70.91" y1="-54.56" x2="178" y2="-54.56" gradientTransform="translate(0 96)" gradientUnits="userSpaceOnUse"><stop offset="0" stop-color="#005380"/><stop offset="1" stop-color="#0299ae"/></linearGradient><linearGradient id="Безымянный_градиент_6" x1="225.77" y1="-54.56" x2="263.34" y2="-54.56" gradientTransform="translate(0 96)" gradientUnits="userSpaceOnUse"><stop offset="0" stop-color="#007093"/><stop offset="1" stop-color="#0299ae"/></linearGradient><linearGradient id="Безымянный_градиент_9" x1="70.23" y1="13.98" x2="112.16" y2="13.98" gradientTransform="translate(0 96)" gradientUnits="userSpaceOnUse"><stop offset="0" stop-color="#005380"/><stop offset="1" stop-color="#017194"/></linearGradient><linearGradient id="Безымянный_градиент_10" x1="120.53" y1="13.98" x2="186.47" y2="13.98" xlink:href="#Безымянный_градиент_9"/><linearGradient id="Безымянный_градиент_11" x1="70.22" y1="79.29" x2="263.3" y2="79.29" xlink:href="#Безымянный_градиент_9"/><linearGradient id="Безымянный_градиент_12" x1="185.97" y1="167.92" x2="262.43" y2="167.92" xlink:href="#Безымянный_градиент_9"/><linearGradient id="Безымянный_градиент_13" x1="70.51" y1="248.97" x2="261.92" y2="248.97" xlink:href="#Безымянный_градиент_9"/><linearGradient id="Безымянный_градиент_14" x1="70.23" y1="137.27" x2="171.84" y2="137.27" xlink:href="#Безымянный_градиент_9"/><linearGradient id="Безымянный_градиент_15" x1="70.23" y1="159.26" x2="171.84" y2="159.26" xlink:href="#Безымянный_градиент_9"/><linearGradient id="Безымянный_градиент_16" x1="70.23" y1="190.05" x2="171.84" y2="190.05" xlink:href="#Безымянный_градиент_9"/><linearGradient id="Безымянный_градиент_17" x1="133.88" y1="234.54" x2="199.63" y2="234.54" gradientTransform="matrix(1, 0, 0, -1, 0, 400)" xlink:href="#Безымянный_градиент_9"/><linearGradient id="Безымянный_градиент_18" x1="100.35" y1="222.82" x2="233.15" y2="222.82" gradientTransform="matrix(1, 0, 0, -1, 0, 400)" xlink:href="#Безымянный_градиент_9"/><linearGradient id="Безымянный_градиент_19" x1="100.35" y1="211.1" x2="233.15" y2="211.1" gradientTransform="matrix(1, 0, 0, -1, 0, 400)" xlink:href="#Безымянный_градиент_9"/><linearGradient id="Безымянный_градиент_7" x1="205.3" y1="111.57" x2="312.8" y2="111.57" gradientTransform="matrix(1, 0, 0, 1, 0, 0)" xlink:href="#Безымянный_градиент_5"/><linearGradient id="Безымянный_градиент_7-2" x1="237.91" y1="111.57" x2="280.19" y2="111.57" gradientTransform="matrix(1, 0, 0, 1, 0, 0)" xlink:href="#Безымянный_градиент_5"/><linearGradient id="Безымянный_градиент_7-3" x1="248.28" y1="103.55" x2="257.36" y2="103.55" gradientTransform="matrix(1, 0, 0, 1, 0, 0)" xlink:href="#Безымянный_градиент_5"/></defs><title>secondblock_icon_23_mob-01</title><path class="cls-1" d="M74.92,18.58a5.91,5.91,0,1,1,5.91-5.91,5.91,5.91,0,0,1-5.91,5.91h0Zm0-9.81a3.91,3.91,0,1,0,3.91,3.91,3.91,3.91,0,0,0-3.91-3.91h0Z"/><path class="cls-2" d="M90.54,18.58a5.91,5.91,0,1,1,5.91-5.91h0a5.91,5.91,0,0,1-5.91,5.91h0Zm0-9.81a3.91,3.91,0,1,0,3.91,3.91,3.91,3.91,0,0,0-3.91-3.91h0Z"/><path class="cls-3" d="M105.74,18.58a5.91,5.91,0,1,1,5.91-5.91h0a5.91,5.91,0,0,1-5.91,5.91h0Zm0-9.81a3.91,3.91,0,1,0,3.91,3.91,3.91,3.91,0,0,0-3.91-3.91h0Z"/><path class="cls-4" d="M201.89,47.35a5.91,5.91,0,1,1,5.91-5.91,5.91,5.91,0,0,1-5.91,5.91h0Zm0-9.81a3.91,3.91,0,1,0,3.91,3.91,3.91,3.91,0,0,0-3.91-3.91h0Z"/><line class="cls-5" x1="178" y1="41.44" x2="70.91" y2="41.44"/><line class="cls-6" x1="263.34" y1="41.44" x2="225.77" y2="41.44"/><rect class="cls-7" x="70.73" y="97.73" width="40.93" height="24.5"/><polyline class="cls-8" points="186.47 122.23 121.03 122.23 121.03 97.73 186.47 97.73"/><polyline class="cls-9" points="262.8 163.81 262.8 206.75 70.72 206.75 70.72 143.82 202.7 143.82"/><polygon class="cls-10" points="261.8 300.95 186.47 300.95 186.47 226.89 261.93 226.89 261.8 300.95"/><polygon class="cls-11" points="261.1 371.33 71.01 371.33 71.01 318.61 261.42 318.61 261.1 371.33"/><rect class="cls-12" x="70.73" y="226.89" width="100.61" height="12.76"/><rect class="cls-13" x="70.73" y="248.88" width="100.61" height="12.76"/><rect class="cls-14" x="70.73" y="271.14" width="100.61" height="29.81"/><rect class="cls-15" x="134.38" y="163.81" width="64.75" height="3.3"/><rect class="cls-16" x="100.85" y="175.53" width="131.8" height="3.3"/><rect class="cls-17" x="100.85" y="187.25" width="131.8" height="3.3"/><path class="cls-18" d="M205.8,111.54c0,8.95,22.25,30.09,52.22,30.09,31.3,0,54.28-21.63,54.28-30.09,0-6.69-22.17-30-54.28-30C228,81.44,205.8,103,205.8,111.54Z"/><circle class="cls-19" cx="259.05" cy="111.57" r="20.64"/><path class="cls-20" d="M248.78,108.09a8.58,8.58,0,0,1,8.58-8.58"/></svg>