<svg id="Capa_1" data-name="Capa 1" xmlns="http://www.w3.org/2000/svg" xmlns:xlink="http://www.w3.org/1999/xlink" viewBox="0 0 337.39 400"><defs><style>.cls-1{fill:url(#Безымянный_градиент);}.cls-2{fill:url(#Безымянный_градиент_2);}.cls-3{fill:url(#Безымянный_градиент_3);}.cls-4{fill:url(#Безымянный_градиент_4);}.cls-10,.cls-11,.cls-12,.cls-13,.cls-14,.cls-15,.cls-16,.cls-17,.cls-18,.cls-19,.cls-20,.cls-21,.cls-22,.cls-23,.cls-5,.cls-6,.cls-7,.cls-8,.cls-9{fill:none;stroke-miterlimit:10;}.cls-5{stroke:url(#Безымянный_градиент_5);}.cls-6{stroke:url(#Безымянный_градиент_6);}.cls-7{stroke:url(#Безымянный_градиент_8);}.cls-8{stroke:url(#Безымянный_градиент_9);}.cls-9{stroke:url(#Безымянный_градиент_10);}.cls-10{stroke:url(#Безымянный_градиент_11);}.cls-11{stroke:url(#Безымянный_градиент_12);}.cls-12{stroke:url(#Безымянный_градиент_13);}.cls-13{stroke:url(#Безымянный_градиент_14);}.cls-14{stroke:url(#Безымянный_градиент_15);}.cls-15{stroke:url(#Безымянный_градиент_16);}.cls-16{stroke:url(#Безымянный_градиент_17);}.cls-17{stroke:url(#Безымянный_градиент_18);}.cls-18{stroke:url(#Безымянный_градиент_19);}.cls-19{stroke:url(#Безымянный_градиент_20);}.cls-20{stroke:url(#Безымянный_градиент_21);}.cls-21{stroke:url(#Безымянный_градиент_22);}.cls-22{stroke:url(#Безымянный_градиент_23);}.cls-23{stroke:url(#Безымянный_градиент_24);}.cls-24{fill:url(#Безымянный_градиент_7);}</style><linearGradient id="Безымянный_градиент" x1="69.01" y1="-83.33" x2="80.83" y2="-83.33" gradientTransform="translate(0 96)" gradientUnits="userSpaceOnUse"><stop offset="0" stop-color="#005380"/><stop offset="0.62" stop-color="#01678e"/><stop offset="1" stop-color="#017496"/></linearGradient><linearGradient id="Безымянный_градиент_2" x1="84.63" y1="-83.33" x2="96.45" y2="-83.33" xlink:href="#Безымянный_градиент"/><linearGradient id="Безымянный_градиент_3" x1="99.83" y1="-83.33" x2="111.65" y2="-83.33" xlink:href="#Безымянный_градиент"/><linearGradient id="Безымянный_градиент_4" x1="195.98" y1="-54.56" x2="207.8" y2="-54.56" xlink:href="#Безымянный_градиент"/><linearGradient id="Безымянный_градиент_5" x1="70.91" y1="-54.56" x2="178" y2="-54.56" gradientTransform="translate(0 96)" gradientUnits="userSpaceOnUse"><stop offset="0" stop-color="#005380"/><stop offset="1" stop-color="#0299ae"/></linearGradient><linearGradient id="Безымянный_градиент_6" x1="225.77" y1="-54.56" x2="263.34" y2="-54.56" gradientTransform="translate(0 96)" gradientUnits="userSpaceOnUse"><stop offset="0" stop-color="#007093"/><stop offset="1" stop-color="#0299ae"/></linearGradient><linearGradient id="Безымянный_градиент_8" x1="133.32" y1="107.11" x2="134.32" y2="107.11" xlink:href="#Безымянный_градиент_5"/><linearGradient id="Безымянный_градиент_9" x1="70.76" y1="65.56" x2="112.24" y2="65.56" xlink:href="#Безымянный_градиент_5"/><linearGradient id="Безымянный_градиент_10" x1="70.45" y1="85.87" x2="111.93" y2="85.87" xlink:href="#Безымянный_градиент_5"/><linearGradient id="Безымянный_градиент_11" x1="70.45" y1="106.18" x2="111.93" y2="106.18" xlink:href="#Безымянный_градиент_5"/><linearGradient id="Безымянный_градиент_12" x1="70.45" y1="126.49" x2="111.93" y2="126.49" xlink:href="#Безымянный_градиент_5"/><linearGradient id="Безымянный_градиент_13" x1="70.45" y1="146.8" x2="111.93" y2="146.8" xlink:href="#Безымянный_градиент_5"/><linearGradient id="Безымянный_градиент_14" x1="167.51" y1="13.31" x2="263.83" y2="13.31" xlink:href="#Безымянный_градиент_5"/><linearGradient id="Безымянный_градиент_15" x1="167.46" y1="129.69" x2="262.93" y2="129.69" xlink:href="#Безымянный_градиент_5"/><linearGradient id="Безымянный_градиент_16" x1="203.09" y1="72.2" x2="247.19" y2="72.2" xlink:href="#Безымянный_градиент_5"/><linearGradient id="Безымянный_градиент_17" x1="203.09" y1="103.36" x2="247.19" y2="103.36" xlink:href="#Безымянный_градиент_5"/><linearGradient id="Безымянный_градиент_18" x1="203.09" y1="134.52" x2="247.19" y2="134.52" xlink:href="#Безымянный_градиент_5"/><linearGradient id="Безымянный_градиент_19" x1="180.6" y1="70.66" x2="194.02" y2="70.66" xlink:href="#Безымянный_градиент_5"/><linearGradient id="Безымянный_градиент_20" x1="180.6" y1="102.61" x2="194.02" y2="102.61" xlink:href="#Безымянный_градиент_5"/><linearGradient id="Безымянный_градиент_21" x1="180.6" y1="133.41" x2="194.02" y2="133.41" xlink:href="#Безымянный_градиент_5"/><linearGradient id="Безымянный_градиент_22" x1="113.68" y1="254.01" x2="260.93" y2="254.01" xlink:href="#Безымянный_градиент_5"/><linearGradient id="Безымянный_градиент_23" x1="68.28" y1="271.24" x2="97.93" y2="271.24" xlink:href="#Безымянный_градиент_5"/><linearGradient id="Безымянный_градиент_24" x1="113.68" y1="288.44" x2="260.93" y2="288.44" xlink:href="#Безымянный_градиент_5"/><linearGradient id="Безымянный_градиент_7" x1="92.01" y1="129.11" x2="92.01" y2="100.09" gradientUnits="userSpaceOnUse"><stop offset="0" stop-color="#005380"/><stop offset="1" stop-color="#017b9a"/></linearGradient></defs><title>secondblock_icon_21_mob-01-01</title><path class="cls-1" d="M74.92,18.58a5.91,5.91,0,1,1,5.91-5.91,5.91,5.91,0,0,1-5.91,5.91h0Zm0-9.81a3.91,3.91,0,1,0,3.91,3.91,3.91,3.91,0,0,0-3.91-3.91h0Z"/><path class="cls-2" d="M90.54,18.58a5.91,5.91,0,1,1,5.91-5.91h0a5.91,5.91,0,0,1-5.91,5.91h0Zm0-9.81a3.91,3.91,0,1,0,3.91,3.91,3.91,3.91,0,0,0-3.91-3.91h0Z"/><path class="cls-3" d="M105.74,18.58a5.91,5.91,0,1,1,5.91-5.91h0a5.91,5.91,0,0,1-5.91,5.91h0Zm0-9.81a3.91,3.91,0,1,0,3.91,3.91,3.91,3.91,0,0,0-3.91-3.91h0Z"/><path class="cls-4" d="M201.89,47.35a5.91,5.91,0,1,1,5.91-5.91,5.91,5.91,0,0,1-5.91,5.91h0Zm0-9.81a3.91,3.91,0,1,0,3.91,3.91,3.91,3.91,0,0,0-3.91-3.91h0Z"/><line class="cls-5" x1="178" y1="41.44" x2="70.91" y2="41.44"/><line class="cls-6" x1="263.34" y1="41.44" x2="225.77" y2="41.44"/><line class="cls-7" x1="133.82" y1="97.21" x2="133.82" y2="309.01"/><line class="cls-8" x1="70.76" y1="161.56" x2="112.24" y2="161.56"/><line class="cls-9" x1="70.45" y1="181.87" x2="111.93" y2="181.87"/><line class="cls-10" x1="70.45" y1="202.18" x2="111.93" y2="202.18"/><line class="cls-11" x1="70.45" y1="222.49" x2="111.93" y2="222.49"/><line class="cls-12" x1="70.45" y1="242.8" x2="111.93" y2="242.8"/><rect class="cls-13" x="168.01" y="100.09" width="95.32" height="18.44"/><rect class="cls-14" x="167.96" y="142.36" width="94.47" height="166.65"/><rect class="cls-15" x="203.59" y="160.45" width="43.1" height="15.5"/><rect class="cls-16" x="203.59" y="191.61" width="43.1" height="15.5"/><rect class="cls-17" x="203.59" y="222.77" width="43.1" height="15.5"/><circle class="cls-18" cx="187.31" cy="166.66" r="6.21"/><circle class="cls-19" cx="187.31" cy="198.61" r="6.21"/><circle class="cls-20" cx="187.31" cy="229.41" r="6.21"/><rect class="cls-21" x="114.18" y="341.22" width="146.25" height="17.59"/><polyline class="cls-22" points="97.93 384.45 68.78 384.45 68.78 350.02 97.93 350.02"/><rect class="cls-23" x="114.18" y="375.65" width="146.25" height="17.59"/><path class="cls-24" d="M103.88,102.8v3.07A14,14,0,0,0,99,101.54a13,13,0,0,0-6.15-1.45,13.65,13.65,0,0,0-10.07,4.24,14,14,0,0,0-4.18,10.2,14.24,14.24,0,0,0,4.15,10.34,14,14,0,0,0,16.08,2.88,15.22,15.22,0,0,0,5-4.08v2.75h1.5V102.8h-1.5ZM102.66,118c-1.17,5-4,8.7-9.49,8.7a12.07,12.07,0,1,1,0-24.14c5.66,0,8.54,3.89,9.59,9.15a12.58,12.58,0,0,1,.35,3A12.15,12.15,0,0,1,102.66,118Z"/></svg>