<svg id="Capa_1" data-name="Capa 1" xmlns="http://www.w3.org/2000/svg" viewBox="0 0 118.5 118"><defs><style>.cls-1{fill:#fff;}</style></defs><title>secondblock_icon_simple_6_b-01</title><path class="cls-1" d="M90.33,93c0,1.65-1.07,3-2.37,3s-2.37-1.35-2.37-3V30c0-1.65,1.07-3,2.38-3s2.38,1.35,2.38,3V93Z"/><path class="cls-1" d="M85.57,32v7.7A35,35,0,0,0,73.48,28.81a32.59,32.59,0,0,0-15.39-3.62,34.15,34.15,0,0,0-25.2,10.6A35,35,0,0,0,22.41,61.31,35.65,35.65,0,0,0,32.79,87.18a33.72,33.72,0,0,0,25,10.63A33.89,33.89,0,0,0,73,94.38,38.08,38.08,0,0,0,85.57,84.16V91h3.76V32H85.57ZM85,70.13C82.09,82.7,72.53,91.9,58.78,91.9a30.2,30.2,0,1,1,0-60.41c14.16,0,23.88,9.75,26.49,22.89a31.47,31.47,0,0,1,.86,7.47A30.4,30.4,0,0,1,85,70.13Z"/></svg>